#Comment line ignore any data following # character 
#Hierarchical Translation and Rotation (.htr) file 
[Header]	
#Header keywords are followed by a single value 
FileType HTR		#Single word string
DataType HTRS		#Translation followed by rotation and scale data
FileVersion 1		#integer
NumSegments 84		#integer
NumFrames 2		#integer
DataFrameRate 30		#integer, data frame rate in this file
EulerRotationOrder ZYX
CalibrationUnits mm
RotationUnits Degrees
GlobalAxisofGravity Y
BoneLengthAxis Y
ScaleFactor 1.00
[SegmentNames&Hierarchy]
#CHILD	PARENT
MASTER GLOBAL
root MASTER
chest root
L_mid_tent01 root
R_mid_tent01 root
spine01 root
Bip01_Neck chest
L_humerus chest
R_humerus chest
weapon_bone chest
Bip01_Head Bip01_Neck
eye_left_bone Bip01_Head
eye_right_bone Bip01_Head
L_forearm L_humerus
L_front_hand L_forearm
L_weapon_bone L_forearm
L_front_hand01_01 L_front_hand
L_front_hand02_01 L_front_hand
L_front_hand03_01 L_front_hand
L_front_hand01_02 L_front_hand01_01
L_front_hand02_02 L_front_hand02_01
L_front_hand03_02 L_front_hand03_01
R_forearm R_humerus
R_front_hand R_forearm
R_weapon_bone R_forearm
R_front_hand01_01 R_front_hand
R_front_hand02_01 R_front_hand
R_front_hand03_01 R_front_hand
R_front_hand01_02 R_front_hand01_01
R_front_hand02_02 R_front_hand02_01
R_front_hand03_02 R_front_hand03_01
null_rope01_connect L_mid_tent01
Rope1_Seg01 null_rope01_connect
Rope1_Seg02 Rope1_Seg01
Rope1_Seg03 Rope1_Seg02
Rope1_Seg04 Rope1_Seg03
Rope1_Seg05 Rope1_Seg04
Rope1_Seg06 Rope1_Seg05
Rope1_Seg07 Rope1_Seg06
Rope1_Seg09 Rope1_Seg07
L_mid_hand01 Rope1_Seg09
L_mid_hand02 Rope1_Seg09
L_mid_hand03 Rope1_Seg09
null_rope02_connect R_mid_tent01
Rope2_Seg01 null_rope02_connect
Rope2_Seg02 Rope2_Seg01
Rope2_Seg03 Rope2_Seg02
Rope2_Seg04 Rope2_Seg03
Rope2_Seg05 Rope2_Seg04
Rope2_Seg06 Rope2_Seg05
Rope2_Seg07 Rope2_Seg06
Rope2_Seg09 Rope2_Seg07
R_mid_hand01 Rope2_Seg09
R_mid_hand02 Rope2_Seg09
R_mid_hand03 Rope2_Seg09
spine02 spine01
spine03 spine02
pelvis spine03
null_rope03_connect pelvis
null_rope04_connect pelvis
Rope3_Seg01 null_rope03_connect
Rope3_Seg02 Rope3_Seg01
Rope3_Seg03 Rope3_Seg02
Rope3_Seg04 Rope3_Seg03
Rope3_Seg05 Rope3_Seg04
Rope3_Seg06 Rope3_Seg05
Rope3_Seg07 Rope3_Seg06
Rope3_Seg08 Rope3_Seg07
Rope3_Seg09 Rope3_Seg08
R_rear_hand01 Rope3_Seg09
R_rear_hand02 Rope3_Seg09
R_rear_hand03 Rope3_Seg09
Rope4_Seg01 null_rope04_connect
Rope4_Seg02 Rope4_Seg01
Rope4_Seg03 Rope4_Seg02
Rope4_Seg04 Rope4_Seg03
Rope4_Seg05 Rope4_Seg04
Rope4_Seg06 Rope4_Seg05
Rope4_Seg07 Rope4_Seg06
Rope4_Seg08 Rope4_Seg07
Rope4_Seg09 Rope4_Seg08
L_rear_hand01 Rope4_Seg09
L_rear_hand02 Rope4_Seg09
L_rear_hand03 Rope4_Seg09
[BasePosition]
#SegmentName Tx, Ty, Tz, Rx, Ry, Rz, BoneLength
MASTER 0.000000 0.000000 0.000000 -90.000000 0.000000 0.000000 10.000000 
root 0.000000 0.000000 0.000000 0.000000 0.000000 0.000000 10.000000 
chest 0.000000 0.000000 0.000000 0.000000 0.000000 0.000000 10.000000 
L_mid_tent01 0.000000 0.000000 0.000000 0.000000 0.000000 0.000000 10.000000 
R_mid_tent01 0.000000 0.000000 0.000000 0.000000 0.000000 0.000000 10.000000 
spine01 0.000000 0.000000 0.000000 0.000000 0.000000 0.000000 10.000000 
Bip01_Neck 0.000000 0.000000 0.000000 0.000000 0.000000 0.000000 10.000000 
L_humerus 0.000000 0.000000 0.000000 0.000000 0.000000 0.000000 10.000000 
R_humerus 0.000000 0.000000 0.000000 0.000000 0.000000 0.000000 10.000000 
weapon_bone 0.000000 0.000000 0.000000 0.000000 0.000000 0.000000 10.000000 
Bip01_Head 0.000000 0.000000 0.000000 0.000000 0.000000 0.000000 10.000000 
eye_left_bone 0.000000 0.000000 0.000000 0.000000 0.000000 0.000000 10.000000 
eye_right_bone 0.000000 0.000000 0.000000 0.000000 0.000000 0.000000 10.000000 
L_forearm 0.000000 0.000000 0.000000 0.000000 0.000000 0.000000 10.000000 
L_front_hand 0.000000 0.000000 0.000000 0.000000 0.000000 0.000000 10.000000 
L_weapon_bone 0.000000 0.000000 0.000000 0.000000 0.000000 0.000000 10.000000 
L_front_hand01_01 0.000000 0.000000 0.000000 0.000000 0.000000 0.000000 10.000000 
L_front_hand02_01 0.000000 0.000000 0.000000 0.000000 0.000000 0.000000 10.000000 
L_front_hand03_01 0.000000 0.000000 0.000000 0.000000 0.000000 0.000000 10.000000 
L_front_hand01_02 0.000000 0.000000 0.000000 0.000000 0.000000 0.000000 10.000000 
L_front_hand02_02 0.000000 0.000000 0.000000 0.000000 0.000000 0.000000 10.000000 
L_front_hand03_02 0.000000 0.000000 0.000000 0.000000 0.000000 0.000000 10.000000 
R_forearm 0.000000 0.000000 0.000000 0.000000 0.000000 0.000000 10.000000 
R_front_hand 0.000000 0.000000 0.000000 0.000000 0.000000 0.000000 10.000000 
R_weapon_bone 0.000000 0.000000 0.000000 0.000000 0.000000 0.000000 10.000000 
R_front_hand01_01 0.000000 0.000000 0.000000 0.000000 0.000000 0.000000 10.000000 
R_front_hand02_01 0.000000 0.000000 0.000000 0.000000 0.000000 0.000000 10.000000 
R_front_hand03_01 0.000000 0.000000 0.000000 0.000000 0.000000 0.000000 10.000000 
R_front_hand01_02 0.000000 0.000000 0.000000 0.000000 0.000000 0.000000 10.000000 
R_front_hand02_02 0.000000 0.000000 0.000000 0.000000 0.000000 0.000000 10.000000 
R_front_hand03_02 0.000000 0.000000 0.000000 0.000000 0.000000 0.000000 10.000000 
null_rope01_connect 0.000000 0.000000 0.000000 0.000000 0.000000 0.000000 10.000000 
Rope1_Seg01 0.000000 0.000000 0.000000 0.000000 0.000000 0.000000 10.000000 
Rope1_Seg02 0.000000 0.000000 0.000000 0.000000 0.000000 0.000000 10.000000 
Rope1_Seg03 0.000000 0.000000 0.000000 0.000000 0.000000 0.000000 10.000000 
Rope1_Seg04 0.000000 0.000000 0.000000 0.000000 0.000000 0.000000 10.000000 
Rope1_Seg05 0.000000 0.000000 0.000000 0.000000 0.000000 0.000000 10.000000 
Rope1_Seg06 0.000000 0.000000 0.000000 0.000000 0.000000 0.000000 10.000000 
Rope1_Seg07 0.000000 0.000000 0.000000 0.000000 0.000000 0.000000 10.000000 
Rope1_Seg09 0.000000 0.000000 0.000000 0.000000 0.000000 0.000000 10.000000 
L_mid_hand01 0.000000 0.000000 0.000000 0.000000 0.000000 0.000000 10.000000 
L_mid_hand02 0.000000 0.000000 0.000000 0.000000 0.000000 0.000000 10.000000 
L_mid_hand03 0.000000 0.000000 0.000000 0.000000 0.000000 0.000000 10.000000 
null_rope02_connect 0.000000 0.000000 0.000000 0.000000 0.000000 0.000000 10.000000 
Rope2_Seg01 0.000000 0.000000 0.000000 0.000000 0.000000 0.000000 10.000000 
Rope2_Seg02 0.000000 0.000000 0.000000 0.000000 0.000000 0.000000 10.000000 
Rope2_Seg03 0.000000 0.000000 0.000000 0.000000 0.000000 0.000000 10.000000 
Rope2_Seg04 0.000000 0.000000 0.000000 0.000000 0.000000 0.000000 10.000000 
Rope2_Seg05 0.000000 0.000000 0.000000 0.000000 0.000000 0.000000 10.000000 
Rope2_Seg06 0.000000 0.000000 0.000000 0.000000 0.000000 0.000000 10.000000 
Rope2_Seg07 0.000000 0.000000 0.000000 0.000000 0.000000 0.000000 10.000000 
Rope2_Seg09 0.000000 0.000000 0.000000 0.000000 0.000000 0.000000 10.000000 
R_mid_hand01 0.000000 0.000000 0.000000 0.000000 0.000000 0.000000 10.000000 
R_mid_hand02 0.000000 0.000000 0.000000 0.000000 0.000000 0.000000 10.000000 
R_mid_hand03 0.000000 0.000000 0.000000 0.000000 0.000000 0.000000 10.000000 
spine02 0.000000 0.000000 0.000000 0.000000 0.000000 0.000000 10.000000 
spine03 0.000000 0.000000 0.000000 0.000000 0.000000 0.000000 10.000000 
pelvis 0.000000 0.000000 0.000000 0.000000 0.000000 0.000000 10.000000 
null_rope03_connect 0.000000 0.000000 0.000000 0.000000 0.000000 0.000000 10.000000 
null_rope04_connect 0.000000 0.000000 0.000000 0.000000 0.000000 0.000000 10.000000 
Rope3_Seg01 0.000000 0.000000 0.000000 0.000000 0.000000 0.000000 10.000000 
Rope3_Seg02 0.000000 0.000000 0.000000 0.000000 0.000000 0.000000 10.000000 
Rope3_Seg03 0.000000 0.000000 0.000000 0.000000 0.000000 0.000000 10.000000 
Rope3_Seg04 0.000000 0.000000 0.000000 0.000000 0.000000 0.000000 10.000000 
Rope3_Seg05 0.000000 0.000000 0.000000 0.000000 0.000000 0.000000 10.000000 
Rope3_Seg06 0.000000 0.000000 0.000000 0.000000 0.000000 0.000000 10.000000 
Rope3_Seg07 0.000000 0.000000 0.000000 0.000000 0.000000 0.000000 10.000000 
Rope3_Seg08 0.000000 0.000000 0.000000 0.000000 0.000000 0.000000 10.000000 
Rope3_Seg09 0.000000 0.000000 0.000000 0.000000 0.000000 0.000000 10.000000 
R_rear_hand01 0.000000 0.000000 0.000000 0.000000 0.000000 0.000000 10.000000 
R_rear_hand02 0.000000 0.000000 0.000000 0.000000 0.000000 0.000000 10.000000 
R_rear_hand03 0.000000 0.000000 0.000000 0.000000 0.000000 0.000000 10.000000 
Rope4_Seg01 0.000000 0.000000 0.000000 0.000000 0.000000 0.000000 10.000000 
Rope4_Seg02 0.000000 0.000000 0.000000 0.000000 0.000000 0.000000 10.000000 
Rope4_Seg03 0.000000 0.000000 0.000000 0.000000 0.000000 0.000000 10.000000 
Rope4_Seg04 0.000000 0.000000 0.000000 0.000000 0.000000 0.000000 10.000000 
Rope4_Seg05 0.000000 0.000000 0.000000 0.000000 0.000000 0.000000 10.000000 
Rope4_Seg06 0.000000 0.000000 0.000000 0.000000 0.000000 0.000000 10.000000 
Rope4_Seg07 0.000000 0.000000 0.000000 0.000000 0.000000 0.000000 10.000000 
Rope4_Seg08 0.000000 0.000000 0.000000 0.000000 0.000000 0.000000 10.000000 
Rope4_Seg09 0.000000 0.000000 0.000000 0.000000 0.000000 0.000000 10.000000 
L_rear_hand01 0.000000 0.000000 0.000000 0.000000 0.000000 0.000000 10.000000 
L_rear_hand02 0.000000 0.000000 0.000000 0.000000 0.000000 0.000000 10.000000 
L_rear_hand03 0.000000 0.000000 0.000000 0.000000 0.000000 0.000000 10.000000 
#Beginning of Data. Separated by tabs
#Fr	Tx	Ty	Tz	Rx	Ry	Rz	SF
[MASTER]
50 -0.000831 5123.524902 4997.385254 0.001660 0.001660 0.001660 7157.119629
51 -0.000844 5225.173340 5000.000000 0.001660 0.001660 0.001660 7232.042480
[root]
50 -28.543591 -68.650528 1487.280151 -91.130516 -34.972954 -89.953827 1489.137329
51 -16.502384 -62.822311 1499.999878 -91.767502 -35.574493 -89.880173 1501.405640
[chest]
50 -84.512650 -34.090519 0.000000 13.478451 4.656558 176.595642 91.129311
51 -84.512650 -34.090519 0.000000 11.165574 4.885731 -178.429626 91.129311
[L_mid_tent01]
50 27.299179 22.179514 -249.918701 -16.940189 22.543442 30.133900 252.381729
51 27.299181 22.179523 -249.918701 -17.806803 20.875851 27.154417 252.381729
[R_mid_tent01]
50 23.228794 24.509907 226.238495 -176.726654 -25.185278 46.763741 228.744751
51 23.228794 24.509907 226.238495 -174.457886 -24.226189 42.577206 228.744751
[spine01]
50 -0.361383 -0.195265 0.000000 0.001947 0.001310 22.122398 0.410763
51 -0.361383 -0.195265 0.000000 0.001947 0.001311 22.107285 0.410763
[Bip01_Neck]
50 165.484543 71.581718 0.000119 176.643677 -1.657967 43.431911 180.302734
51 165.484543 71.581718 0.000119 176.643677 -1.657967 43.431911 180.302734
[L_humerus]
50 -13.983130 -135.272980 -120.471481 114.007271 84.285126 -155.128632 181.680161
51 -13.983130 -135.272980 -120.471481 65.901863 85.551369 156.606918 181.680161
[R_humerus]
50 -13.983309 -135.273102 125.287651 178.044373 -83.307777 -82.975197 184.909012
51 -13.983309 -135.273102 125.287651 144.835190 -87.112701 -49.686958 184.909012
[weapon_bone]
50 235.964890 -300.705902 0.000000 0.000000 -89.951546 -128.212341 382.234833
51 235.964890 -300.705902 0.000000 0.000000 -89.951546 -128.212341 382.234833
[Bip01_Head]
50 213.442917 185.718979 11.734344 5.200446 6.151311 -43.834991 283.173309
51 213.443130 185.718384 11.741447 5.200446 6.151311 -43.834991 283.173340
[eye_left_bone]
50 -24.626970 125.451866 -64.772606 0.000000 -90.000000 -99.840431 143.318359
51 -24.626970 125.451866 -64.772606 0.000000 -90.000000 -99.840431 143.318359
[eye_right_bone]
50 -24.626970 125.451866 64.327362 0.000000 -89.965736 80.156380 143.117676
51 -24.626970 125.451866 64.327362 0.000000 -89.965736 80.156380 143.117676
[L_forearm]
50 322.776093 0.000000 -0.000119 0.000355 -0.002320 -107.388611 322.776093
51 322.776093 0.000000 -0.000119 0.000362 -0.002319 -107.750282 322.776093
[L_front_hand]
50 241.149185 -0.042021 -3.300071 149.893951 -1.837326 -27.423067 241.171753
51 241.149185 -0.042021 -3.300071 149.893951 -1.837326 -27.423067 241.171753
[L_weapon_bone]
50 156.183838 0.000000 0.000000 0.000014 0.000007 0.000001 156.183838
51 156.183838 0.000000 0.000000 0.000014 0.000007 0.000001 156.183838
[L_front_hand01_01]
50 86.095154 20.947098 -0.655860 -0.366594 -0.477154 75.385574 88.609184
51 86.095154 20.947098 -0.655860 -0.366594 -0.477154 75.385574 88.609184
[L_front_hand02_01]
50 86.935165 -11.437475 24.513514 154.399796 -59.883835 -61.369587 91.046425
51 86.935165 -11.437475 24.513514 154.399796 -59.883835 -61.369587 91.046425
[L_front_hand03_01]
50 86.637497 -14.123976 -20.424902 -153.913849 58.118122 -62.702866 90.126129
51 86.637497 -14.123976 -20.424902 -153.913849 58.118122 -62.702866 90.126129
[L_front_hand01_02]
50 71.020905 -0.000179 0.000030 0.000334 -0.002323 -106.379684 71.020905
51 71.020905 -0.000179 0.000030 0.000334 -0.002323 -106.379684 71.020905
[L_front_hand02_02]
50 71.020927 -0.000119 0.000060 0.000334 -0.002323 -106.379684 71.020927
51 71.020927 -0.000119 0.000060 0.000334 -0.002323 -106.379684 71.020927
[L_front_hand03_02]
50 71.020905 -0.000060 0.000060 0.000334 -0.002323 -106.379684 71.020905
51 71.020905 -0.000060 0.000060 0.000334 -0.002323 -106.379684 71.020905
[R_forearm]
50 322.776428 -0.000060 0.000030 0.204212 0.054609 -106.013687 322.776428
51 322.776428 -0.000060 0.000030 0.204037 0.055259 -106.378578 322.776428
[R_front_hand]
50 238.847015 -0.006795 2.210259 -8.879457 -10.642941 -26.315098 238.857239
51 238.847015 -0.006795 2.210259 -8.879457 -10.642941 -26.315098 238.857239
[R_weapon_bone]
50 155.664093 0.002503 -0.000030 0.003487 0.001180 -90.988930 155.664078
51 155.664093 0.002503 -0.000030 0.003487 0.001180 -90.988930 155.664078
[R_front_hand01_01]
50 87.624611 14.231146 22.918642 -154.633499 -59.950619 61.746044 91.683487
51 87.624611 14.231146 22.918642 -154.633499 -59.950619 61.746044 91.683487
[R_front_hand02_01]
50 89.356956 14.367283 -19.491137 154.602661 58.302849 63.744389 92.579636
51 89.356956 14.367283 -19.491137 154.602661 58.302849 63.744389 92.579636
[R_front_hand03_01]
50 87.286232 -22.307278 -0.143439 0.162155 -0.423168 -75.767921 90.091743
51 87.286232 -22.307278 -0.143439 0.162155 -0.423168 -75.767921 90.091743
[R_front_hand01_02]
50 71.020905 0.000060 0.000119 0.002323 -0.000334 106.381721 71.020905
51 71.020905 0.000060 0.000119 0.002323 -0.000334 106.381714 71.020905
[R_front_hand02_02]
50 71.020844 -0.000030 -0.000119 0.002323 -0.000334 106.381721 71.020836
51 71.020844 -0.000030 -0.000119 0.002323 -0.000334 106.381714 71.020836
[R_front_hand03_02]
50 71.020905 0.000000 0.000030 0.002323 -0.000334 106.381721 71.020905
51 71.020905 0.000000 0.000030 0.002323 -0.000334 106.381714 71.020905
[null_rope01_connect]
50 328.732483 0.000000 -0.000238 -124.419014 -61.045460 -144.043106 328.732483
51 328.732483 0.000000 -0.000238 -124.888329 -61.261414 -139.825485 328.732483
[Rope1_Seg01]
50 -0.000021 0.000004 0.000017 -171.983154 46.992474 -138.919006 0.000027
51 -0.000021 0.000003 0.000014 170.610535 32.206562 -132.432861 0.000025
[Rope1_Seg02]
50 139.999863 -0.000179 0.000000 -6.483776 5.179506 -1.769631 139.999863
51 139.999863 -0.000179 0.000000 -29.185118 6.972062 -1.160224 139.999863
[Rope1_Seg03]
50 139.999924 0.000060 -0.000060 -27.650784 11.073236 0.195137 139.999924
51 139.999924 0.000060 -0.000060 -60.361294 10.604356 6.401934 139.999924
[Rope1_Seg04]
50 139.999924 -0.000060 -0.000119 -31.703499 10.180469 -5.455520 139.999924
51 139.999924 -0.000060 -0.000119 -44.263119 10.163536 5.179230 139.999924
[Rope1_Seg05]
50 139.999832 0.000119 -0.000060 -75.138557 5.676557 -4.709456 139.999832
51 139.999832 0.000119 -0.000060 -16.061338 2.884128 4.167400 139.999832
[Rope1_Seg06]
50 139.999954 0.000119 -0.000060 -63.025524 2.074320 2.490310 139.999954
51 139.999954 0.000119 -0.000060 -5.898906 0.406848 2.575921 139.999954
[Rope1_Seg07]
50 139.999985 0.000060 0.000000 -5.463146 -0.595461 1.391717 139.999985
51 139.999985 0.000060 0.000000 -2.253214 0.063907 1.152989 139.999985
[Rope1_Seg09]
50 121.602913 0.000119 -0.000089 -89.793175 -1.359789 0.847147 121.602913
51 121.602913 0.000119 -0.000089 -89.793175 -1.359789 0.847147 121.602913
[L_mid_hand01]
50 103.859421 1.038730 8.195221 130.544373 -67.584534 -38.866943 104.187431
51 103.859421 1.038730 8.195221 130.544373 -67.584534 -38.866943 104.187431
[L_mid_hand02]
50 105.572853 -4.139662 -10.864139 -168.923172 43.409309 -73.498886 106.211075
51 105.572853 -4.139662 -10.864139 -168.923172 43.409309 -73.498894 106.211075
[L_mid_hand03]
50 104.641464 17.579376 -3.913581 -6.012626 17.808172 74.893661 106.179977
51 104.641464 17.579376 -3.913581 -6.012627 17.808174 74.893669 106.179977
[null_rope02_connect]
50 328.732849 0.000179 -0.000119 -107.973915 65.485092 -5.295241 328.732849
51 328.732849 0.000179 -0.000119 -107.931808 66.515724 -9.515457 328.732849
[Rope2_Seg01]
50 0.000072 0.000017 0.000000 -126.219070 46.456650 -27.306339 0.000074
51 0.000073 0.000014 0.000000 -130.098480 34.736568 -34.723568 0.000074
[Rope2_Seg02]
50 139.999741 -0.000060 -0.000119 -18.091211 14.992841 -0.383473 139.999756
51 139.999741 -0.000060 -0.000119 -86.174438 17.944641 -1.521367 139.999756
[Rope2_Seg03]
50 140.000107 0.000030 0.000000 -94.011520 19.657936 -0.215891 140.000107
51 140.000107 0.000030 0.000000 -70.024162 7.082366 15.601699 140.000107
[Rope2_Seg04]
50 139.999802 0.000000 -0.000060 2.753239 -12.223093 4.285407 139.999802
51 139.999802 0.000000 -0.000060 26.106718 -14.443576 -8.598552 139.999802
[Rope2_Seg05]
50 139.999985 -0.000060 0.000119 25.906441 -28.491526 -10.137900 139.999985
51 139.999985 -0.000060 0.000119 17.660646 -21.345343 -8.144181 139.999985
[Rope2_Seg06]
50 139.999893 -0.000030 -0.000119 1.546623 -17.184811 3.950811 139.999893
51 139.999893 -0.000030 -0.000119 3.046324 -13.271832 0.538772 139.999893
[Rope2_Seg07]
50 139.999893 0.000060 -0.000060 0.307926 -7.760982 2.062871 139.999893
51 139.999893 0.000060 -0.000060 0.808921 -5.984636 0.568553 139.999893
[Rope2_Seg09]
50 121.338966 0.000089 -0.000060 33.793236 -1.359788 -0.847141 121.338966
51 121.338966 0.000089 -0.000060 33.793236 -1.359788 -0.847141 121.338966
[R_mid_hand01]
50 104.680779 11.144459 -10.335981 -16.212063 45.237240 70.462845 105.778534
51 104.680779 11.144459 -10.335981 -16.212063 45.237247 70.462852 105.778534
[R_mid_hand02]
50 104.070427 2.443552 8.231699 49.067368 -67.749771 39.286453 104.424065
51 104.070427 2.443552 8.231699 49.067371 -67.749794 39.286461 104.424065
[R_mid_hand03]
50 106.028137 -11.221827 -5.996406 -177.101105 15.551026 -76.585571 106.788818
51 106.028137 -11.221827 -5.996406 -177.101105 15.551026 -76.585571 106.788818
[spine02]
50 129.756927 0.001550 0.000119 0.148889 -4.057168 -9.975019 129.756927
51 129.756927 0.001550 0.000119 0.185939 -4.054678 -10.511055 129.756927
[spine03]
50 78.613914 0.081243 -4.898987 1.774083 3.888719 14.651728 78.766457
51 78.613907 0.081232 -4.898987 1.795914 3.879040 14.970158 78.766441
[pelvis]
50 169.435242 0.051022 0.000000 -0.049705 -0.182527 10.397000 169.435257
51 169.435242 0.051022 0.000000 -0.050746 -0.182244 11.050401 169.435257
[null_rope03_connect]
50 -1.257226 -2.466202 137.391083 0.000000 -89.760971 87.811707 137.418976
51 -1.257226 -2.466202 137.391083 -139.982956 -89.242043 -132.042023 137.418976
[null_rope04_connect]
50 -1.259640 -2.480268 -137.844437 0.000000 -89.760971 87.811707 137.872513
51 -1.259640 -2.480268 -137.844437 -139.982956 -89.242043 -132.042023 137.872513
[Rope3_Seg01]
50 0.000000 0.000000 0.000000 -131.502106 -7.045863 -69.807106 0.000000
51 0.000000 0.000000 0.000000 -131.029449 -5.747150 -73.806290 0.000000
[Rope3_Seg02]
50 139.999924 -0.000119 0.000060 0.484284 -1.682615 2.848844 139.999924
51 139.999924 -0.000119 0.000060 0.227128 -1.479841 1.309483 139.999924
[Rope3_Seg03]
50 139.999924 -0.000119 0.000119 0.362383 -2.249649 0.271561 139.999924
51 139.999924 -0.000119 0.000119 0.214562 -2.025140 -0.570975 139.999924
[Rope3_Seg04]
50 139.999924 0.000119 0.000000 0.269893 -0.953396 2.244991 139.999924
51 139.999924 0.000119 0.000000 0.152479 -1.270325 0.672644 139.999924
[Rope3_Seg05]
50 139.999924 -0.000238 0.000060 0.505210 2.829389 9.116744 139.999924
51 139.999924 -0.000238 0.000060 0.429937 2.609122 8.121422 139.999924
[Rope3_Seg06]
50 139.999893 -0.000119 -0.000060 0.381869 2.189085 6.665903 139.999893
51 139.999893 -0.000119 -0.000060 0.401499 2.213533 6.329486 139.999893
[Rope3_Seg07]
50 139.999771 0.000060 -0.000119 0.320039 1.183165 3.992221 139.999771
51 139.999771 0.000060 -0.000119 0.359047 1.138375 3.596582 139.999771
[Rope3_Seg08]
50 139.999985 -0.000060 0.000000 0.355602 0.780240 2.576128 139.999985
51 139.999985 -0.000060 0.000000 0.392842 0.750547 2.323982 139.999985
[Rope3_Seg09]
50 90.185997 -0.000179 -0.000060 89.793228 -1.359877 -0.847183 90.185997
51 90.185997 -0.000179 -0.000060 89.793228 -1.359877 -0.847183 90.185997
[R_rear_hand01]
50 103.366196 -6.073594 -10.757982 -177.714203 24.565960 -73.910950 104.101845
51 103.366196 -6.073594 -10.757982 -177.714203 24.565960 -73.910950 104.101845
[R_rear_hand02]
50 100.509819 12.039542 -7.992327 -12.874829 36.868488 72.167213 101.543350
51 100.509819 12.039542 -7.992327 -12.874829 36.868488 72.167213 101.543350
[R_rear_hand03]
50 101.539970 5.215704 5.435467 71.484581 -71.816628 21.513813 101.819031
51 101.539970 5.215704 5.435467 71.484581 -71.816628 21.513813 101.819031
[Rope4_Seg01]
50 0.000010 0.000004 -0.000017 48.651363 -1.872422 -122.069283 0.000020
51 0.000010 0.000003 -0.000014 48.264427 -0.028856 -119.611160 0.000017
[Rope4_Seg02]
50 139.999985 0.000060 0.000119 0.348251 3.037388 2.247280 139.999985
51 139.999985 0.000060 0.000119 0.571500 2.593825 3.092004 139.999985
[Rope4_Seg03]
50 139.999924 0.000000 -0.000238 0.559189 4.245142 3.685367 139.999924
51 139.999924 0.000000 -0.000238 0.729005 3.807719 4.891744 139.999924
[Rope4_Seg04]
50 139.999985 0.000000 0.000119 1.168634 7.418752 9.539882 139.999985
51 139.999985 0.000000 0.000119 1.171184 7.012093 14.446503 139.999985
[Rope4_Seg05]
50 139.999802 -0.000060 -0.000119 0.153258 11.343802 -7.288999 139.999802
51 139.999802 -0.000060 -0.000119 0.780839 7.511363 -10.315204 139.999802
[Rope4_Seg06]
50 139.999924 0.000000 0.000060 0.726797 3.603411 -3.702138 139.999924
51 139.999924 0.000000 0.000060 0.859964 1.922609 -7.022259 139.999924
[Rope4_Seg07]
50 139.999802 0.000000 0.000000 0.486552 2.045418 -1.379657 139.999802
51 139.999802 0.000000 0.000000 0.415231 1.276765 -2.397651 139.999802
[Rope4_Seg08]
50 139.999924 0.000000 0.000119 -1.223133 1.155505 -0.797130 139.999924
51 139.999924 0.000000 0.000119 -1.280456 0.711134 -1.359098 139.999924
[Rope4_Seg09]
50 90.185791 0.000060 0.000060 -135.617828 2.228885 0.850567 90.185791
51 90.185791 0.000060 0.000060 -135.617828 2.228885 0.850567 90.185791
[L_rear_hand01]
50 101.696655 -8.392275 -7.654577 -12.874829 -36.868488 107.832764 102.329041
51 101.696655 -8.392275 -7.654577 -12.874829 -36.868488 107.832764 102.329041
[L_rear_hand02]
50 102.726799 -1.568258 5.773216 71.484581 71.816628 158.486160 102.900848
51 102.726799 -1.568258 5.773216 71.484581 71.816628 158.486160 102.900848
[L_rear_hand03]
50 104.552910 9.721220 -10.420293 -177.714203 -24.565960 -106.089035 105.519653
51 104.552910 9.721220 -10.420293 -177.714203 -24.565960 -106.089035 105.519653
